<mxfile host="app.diagrams.net" modified="2023-11-25T12:47:59.076Z" agent="Mozilla/5.0 (Windows NT 10.0; Win64; x64) AppleWebKit/537.36 (KHTML, like Gecko) Chrome/119.0.0.0 Safari/537.36" etag="qi39Bw0s63DCyDLw9nQm" version="22.1.4" type="github">
  <diagram name="Page-1" id="2YBvvXClWsGukQMizWep">
    <mxGraphModel dx="880" dy="1606" grid="1" gridSize="10" guides="1" tooltips="1" connect="1" arrows="1" fold="1" page="1" pageScale="1" pageWidth="850" pageHeight="1100" math="0" shadow="0">
      <root>
        <mxCell id="0" />
        <mxCell id="1" parent="0" />
        <mxCell id="SM-y2lFCZ89rNInMa6Jt-1" value="" style="html=1;points=[[0,0,0,0,5],[0,1,0,0,-5],[1,0,0,0,5],[1,1,0,0,-5]];perimeter=orthogonalPerimeter;outlineConnect=0;targetShapes=umlLifeline;portConstraint=eastwest;newEdgeStyle={&quot;curved&quot;:0,&quot;rounded&quot;:0};" vertex="1" parent="1">
          <mxGeometry x="110" y="-945" width="10" height="430" as="geometry" />
        </mxCell>
        <mxCell id="SM-y2lFCZ89rNInMa6Jt-2" value="Actor" style="shape=umlActor;verticalLabelPosition=bottom;verticalAlign=top;html=1;outlineConnect=0;" vertex="1" parent="1">
          <mxGeometry x="100" y="-1060" width="30" height="60" as="geometry" />
        </mxCell>
        <mxCell id="SM-y2lFCZ89rNInMa6Jt-8" value="Admin" style="text;html=1;strokeColor=none;fillColor=none;align=center;verticalAlign=middle;whiteSpace=wrap;rounded=0;" vertex="1" parent="1">
          <mxGeometry x="85" y="-990" width="60" height="30" as="geometry" />
        </mxCell>
        <mxCell id="SM-y2lFCZ89rNInMa6Jt-9" value="Login" style="rounded=0;whiteSpace=wrap;html=1;" vertex="1" parent="1">
          <mxGeometry x="160" y="-980" width="100" height="20" as="geometry" />
        </mxCell>
        <mxCell id="SM-y2lFCZ89rNInMa6Jt-10" value="Time Table" style="rounded=0;whiteSpace=wrap;html=1;" vertex="1" parent="1">
          <mxGeometry x="280" y="-980" width="100" height="20" as="geometry" />
        </mxCell>
        <mxCell id="SM-y2lFCZ89rNInMa6Jt-11" value="Reservation" style="rounded=0;whiteSpace=wrap;html=1;" vertex="1" parent="1">
          <mxGeometry x="400" y="-980" width="100" height="20" as="geometry" />
        </mxCell>
        <mxCell id="SM-y2lFCZ89rNInMa6Jt-12" value="Search" style="rounded=0;whiteSpace=wrap;html=1;" vertex="1" parent="1">
          <mxGeometry x="510" y="-980" width="100" height="20" as="geometry" />
        </mxCell>
        <mxCell id="SM-y2lFCZ89rNInMa6Jt-13" value="Profile" style="rounded=0;whiteSpace=wrap;html=1;" vertex="1" parent="1">
          <mxGeometry x="620" y="-980" width="100" height="20" as="geometry" />
        </mxCell>
        <mxCell id="SM-y2lFCZ89rNInMa6Jt-14" value="Database" style="rounded=0;whiteSpace=wrap;html=1;" vertex="1" parent="1">
          <mxGeometry x="740" y="-980" width="100" height="20" as="geometry" />
        </mxCell>
        <mxCell id="SM-y2lFCZ89rNInMa6Jt-16" value="" style="html=1;points=[[0,0,0,0,5],[0,1,0,0,-5],[1,0,0,0,5],[1,1,0,0,-5]];perimeter=orthogonalPerimeter;outlineConnect=0;targetShapes=umlLifeline;portConstraint=eastwest;newEdgeStyle={&quot;curved&quot;:0,&quot;rounded&quot;:0};" vertex="1" parent="1">
          <mxGeometry x="810" y="-940" width="10" height="430" as="geometry" />
        </mxCell>
        <mxCell id="SM-y2lFCZ89rNInMa6Jt-17" value="" style="endArrow=classic;html=1;rounded=0;" edge="1" parent="1">
          <mxGeometry width="50" height="50" relative="1" as="geometry">
            <mxPoint x="120" y="-923" as="sourcePoint" />
            <mxPoint x="190" y="-923" as="targetPoint" />
          </mxGeometry>
        </mxCell>
        <mxCell id="SM-y2lFCZ89rNInMa6Jt-18" value="" style="html=1;points=[[0,0,0,0,5],[0,1,0,0,-5],[1,0,0,0,5],[1,1,0,0,-5]];perimeter=orthogonalPerimeter;outlineConnect=0;targetShapes=umlLifeline;portConstraint=eastwest;newEdgeStyle={&quot;curved&quot;:0,&quot;rounded&quot;:0};" vertex="1" parent="1">
          <mxGeometry x="190" y="-930" width="10" height="50" as="geometry" />
        </mxCell>
        <mxCell id="SM-y2lFCZ89rNInMa6Jt-20" value="Request For Login" style="html=1;verticalAlign=bottom;endArrow=block;curved=0;rounded=0;exitX=1;exitY=0.5;exitDx=0;exitDy=0;exitPerimeter=0;" edge="1" parent="1">
          <mxGeometry width="80" relative="1" as="geometry">
            <mxPoint x="200" y="-922" as="sourcePoint" />
            <mxPoint x="810" y="-922" as="targetPoint" />
          </mxGeometry>
        </mxCell>
        <mxCell id="SM-y2lFCZ89rNInMa6Jt-22" value="Login" style="text;html=1;strokeColor=none;fillColor=none;align=center;verticalAlign=middle;whiteSpace=wrap;rounded=0;" vertex="1" parent="1">
          <mxGeometry x="120" y="-950" width="60" height="30" as="geometry" />
        </mxCell>
        <mxCell id="SM-y2lFCZ89rNInMa6Jt-25" value="" style="endArrow=block;dashed=1;endFill=0;endSize=12;html=1;rounded=0;entryX=1;entryY=1;entryDx=0;entryDy=-5;entryPerimeter=0;" edge="1" parent="1" source="SM-y2lFCZ89rNInMa6Jt-16" target="SM-y2lFCZ89rNInMa6Jt-18">
          <mxGeometry width="160" relative="1" as="geometry">
            <mxPoint x="340" y="-790" as="sourcePoint" />
            <mxPoint x="500" y="-790" as="targetPoint" />
          </mxGeometry>
        </mxCell>
        <mxCell id="SM-y2lFCZ89rNInMa6Jt-26" value="Aknowledgement" style="text;html=1;strokeColor=none;fillColor=none;align=center;verticalAlign=middle;whiteSpace=wrap;rounded=0;" vertex="1" parent="1">
          <mxGeometry x="480" y="-920" width="60" height="30" as="geometry" />
        </mxCell>
        <mxCell id="SM-y2lFCZ89rNInMa6Jt-28" value="" style="endArrow=block;dashed=1;endFill=0;endSize=12;html=1;rounded=0;exitX=0;exitY=1;exitDx=0;exitDy=-5;exitPerimeter=0;" edge="1" parent="1">
          <mxGeometry width="160" relative="1" as="geometry">
            <mxPoint x="190" y="-891" as="sourcePoint" />
            <mxPoint x="120" y="-891" as="targetPoint" />
          </mxGeometry>
        </mxCell>
        <mxCell id="SM-y2lFCZ89rNInMa6Jt-29" value="View" style="text;html=1;strokeColor=none;fillColor=none;align=center;verticalAlign=middle;whiteSpace=wrap;rounded=0;" vertex="1" parent="1">
          <mxGeometry x="130" y="-920" width="60" height="30" as="geometry" />
        </mxCell>
        <mxCell id="SM-y2lFCZ89rNInMa6Jt-35" value="" style="endArrow=none;dashed=1;html=1;rounded=0;entryX=0.5;entryY=1;entryDx=0;entryDy=0;" edge="1" parent="1" target="SM-y2lFCZ89rNInMa6Jt-10">
          <mxGeometry width="50" height="50" relative="1" as="geometry">
            <mxPoint x="330" y="-860" as="sourcePoint" />
            <mxPoint x="450" y="-860" as="targetPoint" />
          </mxGeometry>
        </mxCell>
        <mxCell id="SM-y2lFCZ89rNInMa6Jt-36" value="" style="html=1;points=[[0,0,0,0,5],[0,1,0,0,-5],[1,0,0,0,5],[1,1,0,0,-5]];perimeter=orthogonalPerimeter;outlineConnect=0;targetShapes=umlLifeline;portConstraint=eastwest;newEdgeStyle={&quot;curved&quot;:0,&quot;rounded&quot;:0};" vertex="1" parent="1">
          <mxGeometry x="325" y="-856" width="10" height="46" as="geometry" />
        </mxCell>
        <mxCell id="SM-y2lFCZ89rNInMa6Jt-37" value="" style="endArrow=classic;html=1;rounded=0;entryX=0.5;entryY=0.348;entryDx=0;entryDy=0;entryPerimeter=0;exitX=1;exitY=0.244;exitDx=0;exitDy=0;exitPerimeter=0;" edge="1" parent="1">
          <mxGeometry width="50" height="50" relative="1" as="geometry">
            <mxPoint x="120" y="-845.08" as="sourcePoint" />
            <mxPoint x="330" y="-844.992" as="targetPoint" />
          </mxGeometry>
        </mxCell>
        <mxCell id="SM-y2lFCZ89rNInMa6Jt-38" value="" style="endArrow=classic;html=1;rounded=0;exitX=1;exitY=0.244;exitDx=0;exitDy=0;exitPerimeter=0;" edge="1" parent="1" target="SM-y2lFCZ89rNInMa6Jt-16">
          <mxGeometry width="50" height="50" relative="1" as="geometry">
            <mxPoint x="340" y="-845.08" as="sourcePoint" />
            <mxPoint x="550" y="-844.992" as="targetPoint" />
          </mxGeometry>
        </mxCell>
        <mxCell id="SM-y2lFCZ89rNInMa6Jt-39" value="" style="endArrow=block;dashed=1;endFill=0;endSize=12;html=1;rounded=0;entryX=1;entryY=1;entryDx=0;entryDy=-5;entryPerimeter=0;" edge="1" parent="1" target="SM-y2lFCZ89rNInMa6Jt-36">
          <mxGeometry width="160" relative="1" as="geometry">
            <mxPoint x="810" y="-812" as="sourcePoint" />
            <mxPoint x="340" y="-812" as="targetPoint" />
          </mxGeometry>
        </mxCell>
        <mxCell id="SM-y2lFCZ89rNInMa6Jt-40" value="" style="endArrow=block;dashed=1;endFill=0;endSize=12;html=1;rounded=0;entryX=1;entryY=1;entryDx=0;entryDy=-5;entryPerimeter=0;" edge="1" parent="1">
          <mxGeometry width="160" relative="1" as="geometry">
            <mxPoint x="320" y="-815" as="sourcePoint" />
            <mxPoint x="120" y="-815" as="targetPoint" />
          </mxGeometry>
        </mxCell>
        <mxCell id="SM-y2lFCZ89rNInMa6Jt-41" value="&amp;nbsp;Time Table" style="text;html=1;strokeColor=none;fillColor=none;align=center;verticalAlign=middle;whiteSpace=wrap;rounded=0;" vertex="1" parent="1">
          <mxGeometry x="145" y="-870" width="115" height="30" as="geometry" />
        </mxCell>
        <mxCell id="SM-y2lFCZ89rNInMa6Jt-42" value="Request for Time Table" style="text;html=1;strokeColor=none;fillColor=none;align=center;verticalAlign=middle;whiteSpace=wrap;rounded=0;" vertex="1" parent="1">
          <mxGeometry x="480" y="-879" width="220" height="30" as="geometry" />
        </mxCell>
        <mxCell id="SM-y2lFCZ89rNInMa6Jt-43" value="&#xa;&lt;span style=&quot;color: rgb(0, 0, 0); font-family: Helvetica; font-size: 11px; font-style: normal; font-variant-ligatures: normal; font-variant-caps: normal; font-weight: 400; letter-spacing: normal; orphans: 2; text-align: center; text-indent: 0px; text-transform: none; widows: 2; word-spacing: 0px; -webkit-text-stroke-width: 0px; background-color: rgb(255, 255, 255); text-decoration-thickness: initial; text-decoration-style: initial; text-decoration-color: initial; float: none; display: inline !important;&quot;&gt;Aknowledgement&lt;/span&gt;&#xa;&#xa;" style="text;html=1;strokeColor=none;fillColor=none;align=center;verticalAlign=middle;whiteSpace=wrap;rounded=0;" vertex="1" parent="1">
          <mxGeometry x="530" y="-842" width="110" height="30" as="geometry" />
        </mxCell>
        <mxCell id="SM-y2lFCZ89rNInMa6Jt-44" value="View" style="text;html=1;strokeColor=none;fillColor=none;align=center;verticalAlign=middle;whiteSpace=wrap;rounded=0;" vertex="1" parent="1">
          <mxGeometry x="165" y="-848" width="60" height="30" as="geometry" />
        </mxCell>
        <mxCell id="SM-y2lFCZ89rNInMa6Jt-45" value="" style="endArrow=none;dashed=1;html=1;rounded=0;entryX=0.5;entryY=1;entryDx=0;entryDy=0;" edge="1" parent="1">
          <mxGeometry width="50" height="50" relative="1" as="geometry">
            <mxPoint x="450" y="-770" as="sourcePoint" />
            <mxPoint x="450" y="-960" as="targetPoint" />
          </mxGeometry>
        </mxCell>
        <mxCell id="SM-y2lFCZ89rNInMa6Jt-46" value="" style="html=1;points=[[0,0,0,0,5],[0,1,0,0,-5],[1,0,0,0,5],[1,1,0,0,-5]];perimeter=orthogonalPerimeter;outlineConnect=0;targetShapes=umlLifeline;portConstraint=eastwest;newEdgeStyle={&quot;curved&quot;:0,&quot;rounded&quot;:0};" vertex="1" parent="1">
          <mxGeometry x="445" y="-770" width="10" height="46" as="geometry" />
        </mxCell>
        <mxCell id="SM-y2lFCZ89rNInMa6Jt-47" value="" style="endArrow=classic;html=1;rounded=0;exitX=1;exitY=0.244;exitDx=0;exitDy=0;exitPerimeter=0;" edge="1" parent="1" target="SM-y2lFCZ89rNInMa6Jt-46">
          <mxGeometry width="50" height="50" relative="1" as="geometry">
            <mxPoint x="120" y="-760" as="sourcePoint" />
            <mxPoint x="330" y="-759.9119999999999" as="targetPoint" />
          </mxGeometry>
        </mxCell>
        <mxCell id="SM-y2lFCZ89rNInMa6Jt-48" value="" style="endArrow=classic;html=1;rounded=0;exitX=1;exitY=0;exitDx=0;exitDy=5;exitPerimeter=0;" edge="1" parent="1" source="SM-y2lFCZ89rNInMa6Jt-46">
          <mxGeometry width="50" height="50" relative="1" as="geometry">
            <mxPoint x="460" y="-760" as="sourcePoint" />
            <mxPoint x="810" y="-759.92" as="targetPoint" />
          </mxGeometry>
        </mxCell>
        <mxCell id="SM-y2lFCZ89rNInMa6Jt-49" value="" style="endArrow=block;dashed=1;endFill=0;endSize=12;html=1;rounded=0;entryX=1;entryY=1;entryDx=0;entryDy=-5;entryPerimeter=0;" edge="1" parent="1" target="SM-y2lFCZ89rNInMa6Jt-46">
          <mxGeometry width="160" relative="1" as="geometry">
            <mxPoint x="810" y="-727" as="sourcePoint" />
            <mxPoint x="460" y="-730" as="targetPoint" />
          </mxGeometry>
        </mxCell>
        <mxCell id="SM-y2lFCZ89rNInMa6Jt-50" value="" style="endArrow=block;dashed=1;endFill=0;endSize=12;html=1;rounded=0;entryX=1;entryY=1;entryDx=0;entryDy=-5;entryPerimeter=0;" edge="1" parent="1">
          <mxGeometry width="160" relative="1" as="geometry">
            <mxPoint x="440" y="-729" as="sourcePoint" />
            <mxPoint x="120" y="-729" as="targetPoint" />
          </mxGeometry>
        </mxCell>
        <mxCell id="SM-y2lFCZ89rNInMa6Jt-51" value="&#xa;&lt;span style=&quot;color: rgb(0, 0, 0); font-family: Helvetica; font-size: 11px; font-style: normal; font-variant-ligatures: normal; font-variant-caps: normal; font-weight: 400; letter-spacing: normal; orphans: 2; text-align: center; text-indent: 0px; text-transform: none; widows: 2; word-spacing: 0px; -webkit-text-stroke-width: 0px; background-color: rgb(255, 255, 255); text-decoration-thickness: initial; text-decoration-style: initial; text-decoration-color: initial; float: none; display: inline !important;&quot;&gt;Aknowledgement&lt;/span&gt;&#xa;&#xa;" style="text;html=1;strokeColor=none;fillColor=none;align=center;verticalAlign=middle;whiteSpace=wrap;rounded=0;" vertex="1" parent="1">
          <mxGeometry x="530" y="-750" width="110" height="30" as="geometry" />
        </mxCell>
        <mxCell id="SM-y2lFCZ89rNInMa6Jt-52" value="View" style="text;html=1;strokeColor=none;fillColor=none;align=center;verticalAlign=middle;whiteSpace=wrap;rounded=0;" vertex="1" parent="1">
          <mxGeometry x="165" y="-750" width="60" height="30" as="geometry" />
        </mxCell>
        <mxCell id="SM-y2lFCZ89rNInMa6Jt-53" value="Manage Reservation" style="text;html=1;strokeColor=none;fillColor=none;align=center;verticalAlign=middle;whiteSpace=wrap;rounded=0;" vertex="1" parent="1">
          <mxGeometry x="190" y="-790" width="130" height="30" as="geometry" />
        </mxCell>
        <mxCell id="SM-y2lFCZ89rNInMa6Jt-54" value="Request For Manage Reservation" style="text;html=1;strokeColor=none;fillColor=none;align=center;verticalAlign=middle;whiteSpace=wrap;rounded=0;" vertex="1" parent="1">
          <mxGeometry x="550" y="-790" width="190" height="30" as="geometry" />
        </mxCell>
        <mxCell id="SM-y2lFCZ89rNInMa6Jt-55" value="" style="endArrow=none;dashed=1;html=1;rounded=0;entryX=0.5;entryY=1;entryDx=0;entryDy=0;" edge="1" parent="1">
          <mxGeometry width="50" height="50" relative="1" as="geometry">
            <mxPoint x="560" y="-680" as="sourcePoint" />
            <mxPoint x="560" y="-960" as="targetPoint" />
          </mxGeometry>
        </mxCell>
        <mxCell id="SM-y2lFCZ89rNInMa6Jt-56" value="" style="html=1;points=[[0,0,0,0,5],[0,1,0,0,-5],[1,0,0,0,5],[1,1,0,0,-5]];perimeter=orthogonalPerimeter;outlineConnect=0;targetShapes=umlLifeline;portConstraint=eastwest;newEdgeStyle={&quot;curved&quot;:0,&quot;rounded&quot;:0};" vertex="1" parent="1">
          <mxGeometry x="555" y="-680" width="10" height="46" as="geometry" />
        </mxCell>
        <mxCell id="SM-y2lFCZ89rNInMa6Jt-57" value="" style="endArrow=classic;html=1;rounded=0;exitX=1;exitY=0.244;exitDx=0;exitDy=0;exitPerimeter=0;entryX=0;entryY=0.217;entryDx=0;entryDy=0;entryPerimeter=0;" edge="1" parent="1" target="SM-y2lFCZ89rNInMa6Jt-56">
          <mxGeometry width="50" height="50" relative="1" as="geometry">
            <mxPoint x="120" y="-670" as="sourcePoint" />
            <mxPoint x="445" y="-670" as="targetPoint" />
          </mxGeometry>
        </mxCell>
        <mxCell id="SM-y2lFCZ89rNInMa6Jt-58" value="" style="endArrow=classic;html=1;rounded=0;" edge="1" parent="1">
          <mxGeometry width="50" height="50" relative="1" as="geometry">
            <mxPoint x="568" y="-667" as="sourcePoint" />
            <mxPoint x="810" y="-664.92" as="targetPoint" />
          </mxGeometry>
        </mxCell>
        <mxCell id="SM-y2lFCZ89rNInMa6Jt-59" value="" style="endArrow=block;dashed=1;endFill=0;endSize=12;html=1;rounded=0;entryX=1;entryY=1;entryDx=0;entryDy=-5;entryPerimeter=0;" edge="1" parent="1" target="SM-y2lFCZ89rNInMa6Jt-56">
          <mxGeometry width="160" relative="1" as="geometry">
            <mxPoint x="810" y="-638" as="sourcePoint" />
            <mxPoint x="570" y="-638" as="targetPoint" />
          </mxGeometry>
        </mxCell>
        <mxCell id="SM-y2lFCZ89rNInMa6Jt-60" value="" style="endArrow=block;dashed=1;endFill=0;endSize=12;html=1;rounded=0;" edge="1" parent="1" target="SM-y2lFCZ89rNInMa6Jt-1">
          <mxGeometry width="160" relative="1" as="geometry">
            <mxPoint x="555" y="-638" as="sourcePoint" />
            <mxPoint x="200" y="-640" as="targetPoint" />
          </mxGeometry>
        </mxCell>
        <mxCell id="SM-y2lFCZ89rNInMa6Jt-61" value="View" style="text;html=1;strokeColor=none;fillColor=none;align=center;verticalAlign=middle;whiteSpace=wrap;rounded=0;" vertex="1" parent="1">
          <mxGeometry x="165" y="-660" width="60" height="30" as="geometry" />
        </mxCell>
        <mxCell id="SM-y2lFCZ89rNInMa6Jt-62" value="&#xa;&lt;span style=&quot;color: rgb(0, 0, 0); font-family: Helvetica; font-size: 11px; font-style: normal; font-variant-ligatures: normal; font-variant-caps: normal; font-weight: 400; letter-spacing: normal; orphans: 2; text-align: center; text-indent: 0px; text-transform: none; widows: 2; word-spacing: 0px; -webkit-text-stroke-width: 0px; background-color: rgb(255, 255, 255); text-decoration-thickness: initial; text-decoration-style: initial; text-decoration-color: initial; float: none; display: inline !important;&quot;&gt;Aknowledgement&lt;/span&gt;&#xa;&#xa;" style="text;html=1;strokeColor=none;fillColor=none;align=center;verticalAlign=middle;whiteSpace=wrap;rounded=0;" vertex="1" parent="1">
          <mxGeometry x="617" y="-660" width="110" height="30" as="geometry" />
        </mxCell>
        <mxCell id="SM-y2lFCZ89rNInMa6Jt-63" value="Search Details" style="text;html=1;strokeColor=none;fillColor=none;align=center;verticalAlign=middle;whiteSpace=wrap;rounded=0;" vertex="1" parent="1">
          <mxGeometry x="240" y="-700" width="150" height="30" as="geometry" />
        </mxCell>
        <mxCell id="SM-y2lFCZ89rNInMa6Jt-64" value="Request For Search Details" style="text;html=1;strokeColor=none;fillColor=none;align=center;verticalAlign=middle;whiteSpace=wrap;rounded=0;" vertex="1" parent="1">
          <mxGeometry x="600" y="-700" width="150" height="30" as="geometry" />
        </mxCell>
        <mxCell id="SM-y2lFCZ89rNInMa6Jt-65" value="" style="endArrow=none;dashed=1;html=1;rounded=0;entryX=0.5;entryY=1;entryDx=0;entryDy=0;" edge="1" parent="1">
          <mxGeometry width="50" height="50" relative="1" as="geometry">
            <mxPoint x="670" y="-580" as="sourcePoint" />
            <mxPoint x="670" y="-960" as="targetPoint" />
          </mxGeometry>
        </mxCell>
        <mxCell id="SM-y2lFCZ89rNInMa6Jt-66" value="" style="html=1;points=[[0,0,0,0,5],[0,1,0,0,-5],[1,0,0,0,5],[1,1,0,0,-5]];perimeter=orthogonalPerimeter;outlineConnect=0;targetShapes=umlLifeline;portConstraint=eastwest;newEdgeStyle={&quot;curved&quot;:0,&quot;rounded&quot;:0};" vertex="1" parent="1">
          <mxGeometry x="555" y="-670" width="10" height="46" as="geometry" />
        </mxCell>
        <mxCell id="SM-y2lFCZ89rNInMa6Jt-67" value="" style="html=1;points=[[0,0,0,0,5],[0,1,0,0,-5],[1,0,0,0,5],[1,1,0,0,-5]];perimeter=orthogonalPerimeter;outlineConnect=0;targetShapes=umlLifeline;portConstraint=eastwest;newEdgeStyle={&quot;curved&quot;:0,&quot;rounded&quot;:0};" vertex="1" parent="1">
          <mxGeometry x="665" y="-573" width="10" height="46" as="geometry" />
        </mxCell>
        <mxCell id="SM-y2lFCZ89rNInMa6Jt-68" value="" style="endArrow=classic;html=1;rounded=0;exitX=1;exitY=0.244;exitDx=0;exitDy=0;exitPerimeter=0;entryX=0;entryY=0;entryDx=0;entryDy=5;entryPerimeter=0;" edge="1" parent="1" target="SM-y2lFCZ89rNInMa6Jt-67">
          <mxGeometry width="50" height="50" relative="1" as="geometry">
            <mxPoint x="120" y="-569.98" as="sourcePoint" />
            <mxPoint x="555" y="-569.98" as="targetPoint" />
          </mxGeometry>
        </mxCell>
        <mxCell id="SM-y2lFCZ89rNInMa6Jt-69" value="" style="endArrow=classic;html=1;rounded=0;" edge="1" parent="1">
          <mxGeometry width="50" height="50" relative="1" as="geometry">
            <mxPoint x="680" y="-568" as="sourcePoint" />
            <mxPoint x="810" y="-567.92" as="targetPoint" />
          </mxGeometry>
        </mxCell>
        <mxCell id="SM-y2lFCZ89rNInMa6Jt-71" value="" style="endArrow=block;dashed=1;endFill=0;endSize=12;html=1;rounded=0;" edge="1" parent="1">
          <mxGeometry width="160" relative="1" as="geometry">
            <mxPoint x="810" y="-530" as="sourcePoint" />
            <mxPoint x="675" y="-530" as="targetPoint" />
          </mxGeometry>
        </mxCell>
        <mxCell id="SM-y2lFCZ89rNInMa6Jt-73" value="" style="endArrow=block;dashed=1;endFill=0;endSize=12;html=1;rounded=0;" edge="1" parent="1">
          <mxGeometry width="160" relative="1" as="geometry">
            <mxPoint x="660" y="-530" as="sourcePoint" />
            <mxPoint x="120" y="-530" as="targetPoint" />
          </mxGeometry>
        </mxCell>
        <mxCell id="SM-y2lFCZ89rNInMa6Jt-74" value="&#xa;&lt;span style=&quot;color: rgb(0, 0, 0); font-family: Helvetica; font-size: 11px; font-style: normal; font-variant-ligatures: normal; font-variant-caps: normal; font-weight: 400; letter-spacing: normal; orphans: 2; text-align: center; text-indent: 0px; text-transform: none; widows: 2; word-spacing: 0px; -webkit-text-stroke-width: 0px; background-color: rgb(255, 255, 255); text-decoration-thickness: initial; text-decoration-style: initial; text-decoration-color: initial; float: none; display: inline !important;&quot;&gt;Aknowledgement&lt;/span&gt;&#xa;&#xa;" style="text;html=1;strokeColor=none;fillColor=none;align=center;verticalAlign=middle;whiteSpace=wrap;rounded=0;" vertex="1" parent="1">
          <mxGeometry x="685" y="-560" width="110" height="30" as="geometry" />
        </mxCell>
        <mxCell id="SM-y2lFCZ89rNInMa6Jt-75" value="View" style="text;html=1;strokeColor=none;fillColor=none;align=center;verticalAlign=middle;whiteSpace=wrap;rounded=0;" vertex="1" parent="1">
          <mxGeometry x="165" y="-560" width="60" height="30" as="geometry" />
        </mxCell>
        <mxCell id="SM-y2lFCZ89rNInMa6Jt-76" value="Request For Manage Profile" style="text;html=1;strokeColor=none;fillColor=none;align=center;verticalAlign=middle;whiteSpace=wrap;rounded=0;" vertex="1" parent="1">
          <mxGeometry x="685" y="-603" width="125" height="30" as="geometry" />
        </mxCell>
        <mxCell id="SM-y2lFCZ89rNInMa6Jt-77" value="Manage Profile" style="text;html=1;strokeColor=none;fillColor=none;align=center;verticalAlign=middle;whiteSpace=wrap;rounded=0;" vertex="1" parent="1">
          <mxGeometry x="240" y="-603" width="160" height="30" as="geometry" />
        </mxCell>
        <mxCell id="SM-y2lFCZ89rNInMa6Jt-78" value="" style="endArrow=none;dashed=1;html=1;rounded=0;entryX=0.5;entryY=1;entryDx=0;entryDy=0;" edge="1" parent="1">
          <mxGeometry width="50" height="50" relative="1" as="geometry">
            <mxPoint x="195" y="-460" as="sourcePoint" />
            <mxPoint x="195" y="-880" as="targetPoint" />
          </mxGeometry>
        </mxCell>
        <mxCell id="SM-y2lFCZ89rNInMa6Jt-79" value="" style="endArrow=none;dashed=1;html=1;rounded=0;entryX=0.5;entryY=1;entryDx=0;entryDy=0;" edge="1" parent="1">
          <mxGeometry width="50" height="50" relative="1" as="geometry">
            <mxPoint x="195" y="-930" as="sourcePoint" />
            <mxPoint x="195" y="-960" as="targetPoint" />
          </mxGeometry>
        </mxCell>
        <mxCell id="SM-y2lFCZ89rNInMa6Jt-80" value="" style="endArrow=none;dashed=1;html=1;rounded=0;" edge="1" parent="1">
          <mxGeometry width="50" height="50" relative="1" as="geometry">
            <mxPoint x="330" y="-460" as="sourcePoint" />
            <mxPoint x="330" y="-810" as="targetPoint" />
          </mxGeometry>
        </mxCell>
        <mxCell id="SM-y2lFCZ89rNInMa6Jt-81" value="" style="endArrow=none;dashed=1;html=1;rounded=0;" edge="1" parent="1">
          <mxGeometry width="50" height="50" relative="1" as="geometry">
            <mxPoint x="450" y="-460" as="sourcePoint" />
            <mxPoint x="450" y="-720" as="targetPoint" />
          </mxGeometry>
        </mxCell>
        <mxCell id="SM-y2lFCZ89rNInMa6Jt-82" value="" style="endArrow=none;dashed=1;html=1;rounded=0;" edge="1" parent="1">
          <mxGeometry width="50" height="50" relative="1" as="geometry">
            <mxPoint x="560" y="-460" as="sourcePoint" />
            <mxPoint x="560" y="-620" as="targetPoint" />
          </mxGeometry>
        </mxCell>
        <mxCell id="SM-y2lFCZ89rNInMa6Jt-83" value="" style="endArrow=none;dashed=1;html=1;rounded=0;" edge="1" parent="1">
          <mxGeometry width="50" height="50" relative="1" as="geometry">
            <mxPoint x="670" y="-460" as="sourcePoint" />
            <mxPoint x="670" y="-530" as="targetPoint" />
          </mxGeometry>
        </mxCell>
        <mxCell id="SM-y2lFCZ89rNInMa6Jt-84" value="" style="endArrow=none;dashed=1;html=1;rounded=0;" edge="1" parent="1">
          <mxGeometry width="50" height="50" relative="1" as="geometry">
            <mxPoint x="814" y="-460" as="sourcePoint" />
            <mxPoint x="814" y="-510" as="targetPoint" />
          </mxGeometry>
        </mxCell>
        <mxCell id="SM-y2lFCZ89rNInMa6Jt-85" value="" style="endArrow=none;dashed=1;html=1;rounded=0;" edge="1" parent="1" source="SM-y2lFCZ89rNInMa6Jt-16">
          <mxGeometry width="50" height="50" relative="1" as="geometry">
            <mxPoint x="810" y="-940" as="sourcePoint" />
            <mxPoint x="814" y="-960" as="targetPoint" />
          </mxGeometry>
        </mxCell>
        <mxCell id="SM-y2lFCZ89rNInMa6Jt-86" value="" style="shape=umlDestroy;whiteSpace=wrap;html=1;strokeWidth=3;targetShapes=umlLifeline;" vertex="1" parent="1">
          <mxGeometry x="180" y="-468" width="30" height="30" as="geometry" />
        </mxCell>
        <mxCell id="SM-y2lFCZ89rNInMa6Jt-87" value="" style="shape=umlDestroy;whiteSpace=wrap;html=1;strokeWidth=3;targetShapes=umlLifeline;" vertex="1" parent="1">
          <mxGeometry x="315" y="-468" width="30" height="30" as="geometry" />
        </mxCell>
        <mxCell id="SM-y2lFCZ89rNInMa6Jt-88" value="" style="shape=umlDestroy;whiteSpace=wrap;html=1;strokeWidth=3;targetShapes=umlLifeline;" vertex="1" parent="1">
          <mxGeometry x="435" y="-468" width="30" height="30" as="geometry" />
        </mxCell>
        <mxCell id="SM-y2lFCZ89rNInMa6Jt-89" value="" style="shape=umlDestroy;whiteSpace=wrap;html=1;strokeWidth=3;targetShapes=umlLifeline;" vertex="1" parent="1">
          <mxGeometry x="546" y="-468" width="30" height="30" as="geometry" />
        </mxCell>
        <mxCell id="SM-y2lFCZ89rNInMa6Jt-90" value="" style="shape=umlDestroy;whiteSpace=wrap;html=1;strokeWidth=3;targetShapes=umlLifeline;" vertex="1" parent="1">
          <mxGeometry x="655" y="-468" width="30" height="30" as="geometry" />
        </mxCell>
        <mxCell id="SM-y2lFCZ89rNInMa6Jt-91" value="" style="shape=umlDestroy;whiteSpace=wrap;html=1;strokeWidth=3;targetShapes=umlLifeline;" vertex="1" parent="1">
          <mxGeometry x="800" y="-468" width="30" height="30" as="geometry" />
        </mxCell>
      </root>
    </mxGraphModel>
  </diagram>
</mxfile>
